<?xml version="1.0" encoding="UTF-8"?>
<svg width="168px" height="32px" viewBox="0 0 168 32" version="1.1" xmlns="http://www.w3.org/2000/svg" xmlns:xlink="http://www.w3.org/1999/xlink">
    <!-- Generator: Sketch 43.2 (39069) - http://www.bohemiancoding.com/sketch -->
    <title>Logo</title>
    <desc>Created with Sketch.</desc>
    <defs></defs>
    <g id="Page-1" stroke="none" stroke-width="1" fill="none" fill-rule="evenodd">
        <g id="Settings-(Notifications)" transform="translate(-40.000000, -51.000000)">
            <g id="Logo" transform="translate(40.000000, 51.000000)">
                <path d="M16.936,9.844 C16.936,16.036 12.292,18.592 7.468,18.592 C6.64,18.592 5.992,18.52 5.488,18.376 L5.488,23.02 C5.488,24.46 4.588,25.18 2.752,25.18 C0.916,25.18 0.016,24.46 0.016,23.02 L0.016,5.38 C0.016,3.976 0.052,2.5 2.284,1.852 C3.364,1.528 5.272,1.348 6.82,1.348 C12.724,1.348 16.936,3.976 16.936,9.844 Z M5.488,13.768 C6.028,13.876 6.532,13.912 7,13.912 C9.808,13.912 11.32,12.508 11.32,10.024 C11.32,7.252 9.412,6.1 6.82,6.1 C6.352,6.1 5.92,6.136 5.488,6.208 L5.488,13.768 Z M26.1403636,3.832 C26.1403636,2.032 24.8803636,0.808 23.0443636,0.808 C21.2083636,0.808 19.9483636,2.032 19.9483636,3.832 C19.9483636,5.632 21.2083636,6.856 23.0443636,6.856 C24.8803636,6.856 26.1403636,5.632 26.1403636,3.832 Z M25.7443636,10.564 C25.7443636,9.124 24.8443636,8.404 23.0443636,8.404 C21.2443636,8.404 20.3443636,9.124 20.3443636,10.564 L20.3443636,23.02 C20.3443636,24.46 21.2443636,25.18 23.0443636,25.18 C24.8443636,25.18 25.7443636,24.46 25.7443636,23.02 L25.7443636,10.564 Z M35.7407273,24.712 L35.7407273,29.752 C35.7407273,31.192 34.8407273,31.912 33.0407273,31.912 C31.2407273,31.912 30.3407273,31.192 30.3407273,29.752 L30.3407273,10.564 C30.3407273,9.088 31.2407273,8.404 33.0047273,8.404 C34.6607273,8.404 35.3447273,9.016 35.3447273,10.06 L35.3447273,10.096 C36.2447273,8.98 37.6127273,8.404 39.3767273,8.404 C43.3007273,8.404 46.4687273,11.32 46.4687273,16.576 C46.4687273,21.904 43.2287273,25.18 38.2967273,25.18 C37.2527273,25.18 36.3167273,25.036 35.7407273,24.712 Z M35.7407273,20.392 C36.2447273,20.68 36.8567273,20.824 37.5407273,20.824 C39.6647273,20.824 40.9607273,19.456 40.9607273,16.864 C40.9607273,14.164 39.5927273,12.724 37.6127273,12.724 C36.8927273,12.724 36.2447273,12.904 35.7407273,13.264 L35.7407273,20.392 Z M62.5130909,19.78 C63.6650909,19.78 64.6370909,21.076 64.6370909,22.228 C64.6370909,22.984 64.2050909,23.524 63.3050909,24.064 C62.0810909,24.784 60.3170909,25.288 58.0490909,25.288 C52.4690909,25.288 49.3730909,22.192 49.3730909,16.864 C49.3730909,11.608 52.3970909,8.26 57.4010909,8.26 C62.5130909,8.26 65.0690909,11.716 65.0690909,15.316 C65.0690909,17.98 63.7010909,18.34 62.0810909,18.34 L54.5570909,18.34 C54.9890909,20.068 56.1050909,20.968 58.1210909,20.968 C59.3090909,20.968 60.1730909,20.644 61.0370909,20.248 C61.6490909,19.96 62.0810909,19.78 62.5130909,19.78 Z M57.3650909,12.256 C55.7090909,12.256 54.7730909,13.192 54.4490909,14.992 L60.0290909,14.992 C60.0290909,13.516 59.2370909,12.256 57.3650909,12.256 Z M74.1654545,2.788 C74.1654545,1.348 73.2654545,0.628 71.4654545,0.628 C69.6654545,0.628 68.7654545,1.348 68.7654545,2.788 L68.7654545,23.02 C68.7654545,24.46 69.6654545,25.18 71.4654545,25.18 C73.2654545,25.18 74.1654545,24.46 74.1654545,23.02 L74.1654545,2.788 Z M84.5578181,3.832 C84.5578181,2.032 83.2978181,0.808 81.4618181,0.808 C79.6258181,0.808 78.3658181,2.032 78.3658181,3.832 C78.3658181,5.632 79.6258181,6.856 81.4618181,6.856 C83.2978181,6.856 84.5578181,5.632 84.5578181,3.832 Z M84.1618181,10.564 C84.1618181,9.124 83.2618181,8.404 81.4618181,8.404 C79.6618181,8.404 78.7618181,9.124 78.7618181,10.564 L78.7618181,23.02 C78.7618181,24.46 79.6618181,25.18 81.4618181,25.18 C83.2618181,25.18 84.1618181,24.46 84.1618181,23.02 L84.1618181,10.564 Z M91.3501818,8.404 C89.6221818,8.404 88.7581818,9.124 88.7581818,10.564 L88.7581818,23.02 C88.7581818,24.46 89.6581818,25.18 91.4581818,25.18 C93.2581818,25.18 94.1581818,24.46 94.1581818,23.02 L94.1581818,14.092 C94.8061818,13.444 95.5621818,13.12 96.5341818,13.12 C97.4341818,13.12 98.0821818,13.408 98.4781818,14.02 C98.7301818,14.416 98.8741818,14.956 98.8741818,15.712 L98.8741818,23.02 C98.8741818,24.46 99.7741818,25.18 101.574182,25.18 C103.374182,25.18 104.274182,24.46 104.274182,23.02 L104.274182,14.812 C104.274182,13.084 103.950182,11.68 103.302182,10.672 C102.294182,9.088 100.674182,8.404 98.6221818,8.404 C96.4261818,8.404 94.8421818,9.196 93.8701818,10.708 L93.8701818,10.564 C93.9061818,9.304 93.2221818,8.404 91.3501818,8.404 Z M120.930545,19.78 C122.082545,19.78 123.054545,21.076 123.054545,22.228 C123.054545,22.984 122.622545,23.524 121.722545,24.064 C120.498545,24.784 118.734545,25.288 116.466545,25.288 C110.886545,25.288 107.790545,22.192 107.790545,16.864 C107.790545,11.608 110.814545,8.26 115.818545,8.26 C120.930545,8.26 123.486545,11.716 123.486545,15.316 C123.486545,17.98 122.118545,18.34 120.498545,18.34 L112.974545,18.34 C113.406545,20.068 114.522545,20.968 116.538545,20.968 C117.726545,20.968 118.590545,20.644 119.454545,20.248 C120.066545,19.96 120.498545,19.78 120.930545,19.78 Z M115.782545,12.256 C114.126545,12.256 113.190545,13.192 112.866545,14.992 L118.446545,14.992 C118.446545,13.516 117.654545,12.256 115.782545,12.256 Z" id="Pipeline" fill="#333333"></path>
                <rect id="Rectangle-9" fill="#8ECD4B" x="130" y="2" width="31" height="5" rx="2.5"></rect>
                <rect id="Rectangle-9" fill="#D81B60" x="130" y="11" width="38" height="5" rx="2.5"></rect>
                <rect id="Rectangle-9" fill="#FB8C00" x="130" y="20" width="26" height="5" rx="2.5"></rect>
            </g>
        </g>
    </g>
</svg>